<svg xmlns="http://www.w3.org/2000/svg" viewBox="0 0 17.07 23.47"><defs><style>.cls-1{fill:#f4a93b;}</style></defs><title>bc</title><g id="Слой_2" data-name="Слой 2"><g id="Слой_1-2" data-name="Слой 1"><path class="cls-1" d="M15.35,5A6.48,6.48,0,0,0,13.2,4l.7-2.6L12.18.94,11.49,3.5,9.7,3,10.39.46,8.67,0,8,2.56,4.54,1.64,3.91,4,5,4.27a1,1,0,0,1,.7,1.21L2.9,15.83a1,1,0,0,1-1.21.7L.63,16.24,0,18.58l3.44.92-.69,2.56,1.72.46L5.16,20,7,20.45,6.27,23,8,23.47l.69-2.56a7.32,7.32,0,0,0,2.2.28,5,5,0,0,0,4.63-3.66,4.15,4.15,0,0,0-1.66-4.8A4,4,0,0,0,16.9,9.66,4.18,4.18,0,0,0,15.35,5Zm-3,11.38a2.55,2.55,0,0,1-2,2,3.33,3.33,0,0,1-1.26-.14l-3.15-.84,1.35-5.05,3.29.88A2.35,2.35,0,0,1,12.3,16.43Zm1.31-7.38a2.09,2.09,0,0,1-2.68,1.67l-3-.8L9.12,5.49l2.63.71a3.51,3.51,0,0,1,1.4.65A2.19,2.19,0,0,1,13.61,9.05Z"/></g></g></svg>