<svg xmlns="http://www.w3.org/2000/svg" viewBox="0 0 17.59 23.47"><defs><style>.cls-1{fill:#f4a93b;}</style></defs><title>btc</title><g id="Слой_2" data-name="Слой 2"><g id="Слой_1-2" data-name="Слой 1"><path class="cls-1" d="M13.6,9.83a4,4,0,0,0,1.12-4.18,4.18,4.18,0,0,0-3.65-3.22,6.48,6.48,0,0,0-2.39.17L8,0,6.27.46,7,3,5.16,3.5,4.47.94,2.75,1.4,3.44,4,0,4.89.63,7.23l1.06-.28a1,1,0,0,1,1.21.7L5.67,18A1,1,0,0,1,5,19.2l-1.06.28.63,2.34L8,20.91l.69,2.56L10.39,23,9.7,20.45,11.49,20l.69,2.56,1.72-.46-.69-2.56a7.32,7.32,0,0,0,2-.86,5,5,0,0,0,2.18-5.49A4.15,4.15,0,0,0,13.6,9.83ZM5.89,5.94l2.63-.71a3.51,3.51,0,0,1,1.53-.14,2.19,2.19,0,0,1,1.51,1.67,2.09,2.09,0,0,1-1.49,2.79l-3,.8ZM13.4,16.55a3.33,3.33,0,0,1-1.16.51L9.1,17.9,7.74,12.85,11,12a2.35,2.35,0,0,1,3.08,1.84A2.55,2.55,0,0,1,13.4,16.55Z"/></g></g></svg>