<svg xmlns="http://www.w3.org/2000/svg" viewBox="0 0 15.49 23.8"><title>eos</title><g id="Слой_2" data-name="Слой 2"><g id="Слой_1-2" data-name="Слой 1"><polygon points="2.51 7.77 0.08 18.52 3.86 12.02 2.51 7.77"/><polygon points="7.7 5.43 7.7 0 2.63 7.35 4.02 11.75 7.7 5.43"/><polygon points="6.35 19.09 9.23 19.09 11.43 12.01 7.81 5.69 4.11 12.04 6.35 19.09"/><polygon points="15.41 18.5 12.97 7.78 11.67 11.98 15.41 18.5"/><polygon points="12.88 7.35 7.92 0.01 7.92 5.43 11.52 11.71 12.88 7.35"/><polygon points="6.42 19.32 7.81 23.68 9.16 19.32 6.42 19.32"/><polygon points="3.96 12.31 0 19.09 6.12 19.09 3.96 12.31"/><polygon points="8.01 23.8 15.29 19.32 9.4 19.32 8.01 23.8"/><polygon points="9.47 19.09 15.49 19.09 11.58 12.27 9.47 19.09"/><polygon points="0.21 19.32 7.62 23.8 6.19 19.32 0.21 19.32"/></g></g></svg>