<svg xmlns="http://www.w3.org/2000/svg" viewBox="0 0 15.08 24.74"><defs><style>.cls-1{opacity:0.93;}.cls-2{fill:#4d4d4d;}.cls-3{fill:gray;}</style></defs><title>eth</title><g id="Слой_2" data-name="Слой 2"><g id="Слой_1-2" data-name="Слой 1"><g class="cls-1"><polygon class="cls-2" points="7.73 18.77 0 14.3 7.73 24.74 15.08 14.3 7.73 18.77 7.73 18.77"/><polygon class="cls-2" points="0 12.94 7.73 17.29 15.08 12.94 7.73 9.56 0 12.94"/><polygon class="cls-2" points="7.73 9.04 15.08 12.37 7.73 0 0 12.37 7.73 9.04 7.73 9.04"/></g><polygon class="cls-3" points="7.73 18.77 7.73 18.77 7.73 24.74 15.08 14.3 7.73 18.77"/><polygon class="cls-3" points="7.73 9.56 7.73 17.29 15.08 12.94 7.73 9.56"/><polygon class="cls-3" points="7.73 0 7.73 9.04 7.73 9.04 15.08 12.37 7.73 0"/></g></g></svg>